<?xml version="1.0" encoding="UTF-8" standalone="no"?><svg xmlns="http://www.w3.org/2000/svg" xmlns:xlink="http://www.w3.org/1999/xlink" contentStyleType="text/css" height="191px" preserveAspectRatio="none" style="width:488px;height:191px;background:#FFFFFF;" version="1.1" viewBox="0 0 488 191" width="488px" zoomAndPan="magnify"><defs/><g><rect height="26.2969" style="stroke:#00000000;stroke-width:1.0;fill:none;" width="60" x="162.5" y="15"/><text fill="#000000" font-family="sans-serif" font-size="14" font-weight="bold" lengthAdjust="spacing" textLength="50" x="167.5" y="32.9951">myZip</text><rect fill="#F1F1F1" height="36.2969" rx="12.5" ry="12.5" style="stroke:#181818;stroke-width:1.5;" width="74" x="181" y="85.4453"/><text fill="#000000" font-family="sans-serif" font-size="14" lengthAdjust="spacing" textLength="54" x="191" y="108.4404">myzip()</text><rect fill="#F1F1F1" height="36.2969" rx="12.5" ry="12.5" style="stroke:#181818;stroke-width:1.5;" width="171" x="305" y="85.4453"/><text fill="#000000" font-family="sans-serif" font-size="14" lengthAdjust="spacing" textLength="151" x="315" y="108.4404">Seq(1, 'a', 2, 'a', 3, 'a')</text><path d="M255,103.5938 L265,103.5938 C280,103.5938 280,103.5938 295,103.5938 L305,103.5938 " fill="none" style="stroke:#181818;stroke-width:1.0;"/><rect fill="#F1F1F1" height="36.2969" rx="12.5" ry="12.5" style="stroke:#181818;stroke-width:1.5;" width="99" x="32" y="57.2969"/><text fill="#000000" font-family="sans-serif" font-size="14" lengthAdjust="spacing" textLength="79" x="42" y="80.292">Seq(1, 2, 3)</text><path d="M181,103.5938 L171,103.5938 C156,103.5938 156,75.4453 141,75.4453 L131,75.4453 " fill="none" style="stroke:#181818;stroke-width:1.0;"/><rect fill="#F1F1F1" height="36.2969" rx="12.5" ry="12.5" style="stroke:#181818;stroke-width:1.5;" width="121" x="10" y="113.5938"/><text fill="#000000" font-family="sans-serif" font-size="14" lengthAdjust="spacing" textLength="101" x="20" y="136.5889">Seq('a', 'a', 'a')</text><path d="M181,103.5938 L171,103.5938 C156,103.5938 156,131.7422 141,131.7422 L131,131.7422 " fill="none" style="stroke:#181818;stroke-width:1.0;"/><rect height="16.2969" style="stroke:#00000000;stroke-width:1.0;fill:none;" width="105" x="140" y="160.8906"/><text fill="#000000" font-family="sans-serif" font-size="14" lengthAdjust="spacing" textLength="105" x="140" y="173.8857">myzip method</text><!--MD5=[59f072adff6c713d8d9909106251412b]
@startmindmap

caption myzip method
title myZip


* myzip()

** Seq(1, 'a', 2, 'a', 3, 'a')
- - Seq(1, 2, 3)
- - Seq('a', 'a', 'a')

@endmindmap

PlantUML version 1.2022.6beta2(Unknown compile time)
(GPL source distribution)
Java Runtime: Java(TM) SE Runtime Environment
JVM: Java HotSpot(TM) 64-Bit Server VM
Default Encoding: UTF-8
Language: en
Country: US
--></g></svg>